{
  "accessors": [
    {
      "bufferView": 2,
      "componentType": 5126,
      "count": 11936,
      "max": [
        164.37774658203125,
        389.8641052246094,
        358.6087951660156
      ],
      "min": [
        -110.94916534423828,
        -1.478231430053711,
        -443.58599853515625
      ],
      "type": "VEC3"
    },
    {
      "bufferView": 2,
      "byteOffset": 143232,
      "componentType": 5126,
      "count": 11936,
      "max": [
        0.9999399185180664,
        0.999417781829834,
        0.9990327954292297
      ],
      "min": [
        -0.9999653697013855,
        -0.9997766017913818,
        -0.9999850988388062
      ],
      "type": "VEC3"
    },
    {
      "bufferView": 1,
      "componentType": 5126,
      "count": 11936,
      "max": [
        0.9909189939498901,
        0.9934791326522827
      ],
      "min": [
        0.006739307194948196,
        0.008056998252868652
      ],
      "type": "VEC2"
    },
    {
      "bufferView": 0,
      "componentType": 5125,
      "count": 63453,
      "type": "SCALAR"
    }
  ],
  "asset": {
    "extras": {
      "author": "SDPM Esare (https://sketchfab.com/sdpm)",
      "license": "CC-BY-4.0 (http://creativecommons.org/licenses/by/4.0/)",
      "source": "https://sketchfab.com/3d-models/tyrannosaurus-rex-9d6224bf568942dd9a4243c1dec71d34",
      "title": "Tyrannosaurus Rex"
    },
    "generator": "Sketchfab-12.67.0",
    "version": "2.0"
  },
  "bufferViews": [
    {
      "buffer": 0,
      "byteLength": 253812,
      "name": "floatBufferViews",
      "target": 34963
    },
    {
      "buffer": 0,
      "byteLength": 95488,
      "byteOffset": 253812,
      "byteStride": 8,
      "name": "floatBufferViews",
      "target": 34962
    },
    {
      "buffer": 0,
      "byteLength": 286464,
      "byteOffset": 349300,
      "byteStride": 12,
      "name": "floatBufferViews",
      "target": 34962
    }
  ],
  "buffers": [
    {
      "byteLength": 635764,
      "uri": "scene.bin"
    }
  ],
  "images": [
    {
      "uri": "textures/material_baseColor.png"
    }
  ],
  "materials": [
    {
      "doubleSided": true,
      "name": "material",
      "pbrMetallicRoughness": {
        "baseColorTexture": {
          "index": 0
        }
      }
    }
  ],
  "meshes": [
    {
      "name": "Object_0",
      "primitives": [
        {
          "attributes": {
            "NORMAL": 1,
            "POSITION": 0,
            "TEXCOORD_0": 2
          },
          "indices": 3,
          "material": 0,
          "mode": 4
        }
      ]
    }
  ],
  "nodes": [
    {
      "children": [
        1
      ],
      "matrix": [
        1.0,
        0.0,
        0.0,
        0.0,
        0.0,
        2.220446049250313e-16,
        -1.0,
        0.0,
        0.0,
        1.0,
        2.220446049250313e-16,
        0.0,
        0.0,
        0.0,
        0.0,
        1.0
      ],
      "name": "Sketchfab_model"
    },
    {
      "children": [
        2
      ],
      "name": "root"
    },
    {
      "children": [
        3
      ],
      "matrix": [
        1.0,
        0.0,
        0.0,
        0.0,
        0.0,
        2.220446049250313e-16,
        1.0,
        0.0,
        0.0,
        -1.0,
        2.220446049250313e-16,
        0.0,
        0.0,
        0.0,
        0.0,
        1.0
      ],
      "name": "GLTF_SceneRootNode"
    },
    {
      "children": [
        4
      ],
      "matrix": [
        1.2771995043524698e-09,
        0.0,
        -0.007575889583676945,
        0.0,
        0.0,
        0.007575890049338341,
        0.0,
        0.0,
        0.007575889583676945,
        0.0,
        1.2771995043524698e-09,
        0.0,
        0.055588554590940475,
        -0.2540660500526428,
        0.5597134828567505,
        1.0
      ],
      "name": "Tyrannosaurus Rex_0"
    },
    {
      "mesh": 0,
      "name": "Object_4"
    }
  ],
  "samplers": [
    {
      "magFilter": 9729,
      "minFilter": 9987,
      "wrapS": 10497,
      "wrapT": 10497
    }
  ],
  "scene": 0,
  "scenes": [
    {
      "name": "Sketchfab_Scene",
      "nodes": [
        0
      ]
    }
  ],
  "textures": [
    {
      "sampler": 0,
      "source": 0
    }
  ]
}
